<svg xmlns="http://www.w3.org/2000/svg" viewBox="0 0 32 32" fill="none">
  <defs>
    <linearGradient id="sb" x1="4" y1="2" x2="28" y2="30" gradientUnits="userSpaceOnUse">
      <stop stop-color="#f59e0b"/>
      <stop offset="1" stop-color="#10b981"/>
    </linearGradient>
  </defs>
  <rect width="32" height="32" rx="8" fill="url(#sb)"/>
  <path
    d="M16 7.5c-4.2 2.4-7 4.2-7 8.2 0 3.1 2.1 5.8 5.2 7.1-.9-1.4-1.4-3-1.4-4.6 0-4.8 3.2-7.2 3.2-10.7 0-1.1-.3-2.1-.8-3zm0 17c4.2-2.4 7-4.2 7-8.2 0-3.1-2.1-5.8-5.2-7.1.9 1.4 1.4 3 1.4 4.6 0 4.8-3.2 7.2-3.2 10.7 0 1.1.3 2.1.8 3z"
    fill="#fff"
    opacity=".95"
  />
  <path
    d="M11.5 12.5h9M11.5 16h7.5M11.5 19.5h9"
    stroke="#fff"
    stroke-width="1.6"
    stroke-linecap="round"
    opacity=".35"
  />
</svg>
